<?xml version="1.0" encoding="UTF-8"?>

<svg version="1.2" baseProfile="tiny" width="152.15mm" height="203.21mm" viewBox="3188 635 15215 20321" preserveAspectRatio="xMidYMid" fill-rule="evenodd" stroke-width="28.222" stroke-linejoin="round" xmlns="http://www.w3.org/2000/svg" xmlns:ooo="http://xml.openoffice.org/svg/export" xmlns:xlink="http://www.w3.org/1999/xlink" xml:space="preserve">
 <defs class="ClipPathGroup">
  <clipPath id="presentation_clip_path" clipPathUnits="userSpaceOnUse">
   <rect x="3188" y="635" width="15215" height="20321"/>
  </clipPath>
 </defs>
 <defs class="TextShapeIndex">
  <g ooo:slide="id1" ooo:id-list="id3 id4 id5 id6 id7 id8 id9 id10 id11 id12"/>
 </defs>
 <defs class="EmbeddedBulletChars">
  <g id="bullet-char-template(57356)" transform="scale(0.00048828125,-0.00048828125)">
   <path d="M 580,1141 L 1163,571 580,0 -4,571 580,1141 Z"/>
  </g>
  <g id="bullet-char-template(57354)" transform="scale(0.00048828125,-0.00048828125)">
   <path d="M 8,1128 L 1137,1128 1137,0 8,0 8,1128 Z"/>
  </g>
  <g id="bullet-char-template(10146)" transform="scale(0.00048828125,-0.00048828125)">
   <path d="M 174,0 L 602,739 174,1481 1456,739 174,0 Z M 1358,739 L 309,1346 659,739 1358,739 Z"/>
  </g>
  <g id="bullet-char-template(10132)" transform="scale(0.00048828125,-0.00048828125)">
   <path d="M 2015,739 L 1276,0 717,0 1260,543 174,543 174,936 1260,936 717,1481 1274,1481 2015,739 Z"/>
  </g>
  <g id="bullet-char-template(10007)" transform="scale(0.00048828125,-0.00048828125)">
   <path d="M 0,-2 C -7,14 -16,27 -25,37 L 356,567 C 262,823 215,952 215,954 215,979 228,992 255,992 264,992 276,990 289,987 310,991 331,999 354,1012 L 381,999 492,748 772,1049 836,1024 860,1049 C 881,1039 901,1025 922,1006 886,937 835,863 770,784 769,783 710,716 594,584 L 774,223 C 774,196 753,168 711,139 L 727,119 C 717,90 699,76 672,76 641,76 570,178 457,381 L 164,-76 C 142,-110 111,-127 72,-127 30,-127 9,-110 8,-76 1,-67 -2,-52 -2,-32 -2,-23 -1,-13 0,-2 Z"/>
  </g>
  <g id="bullet-char-template(10004)" transform="scale(0.00048828125,-0.00048828125)">
   <path d="M 285,-33 C 182,-33 111,30 74,156 52,228 41,333 41,471 41,549 55,616 82,672 116,743 169,778 240,778 293,778 328,747 346,684 L 369,508 C 377,444 397,411 428,410 L 1163,1116 C 1174,1127 1196,1133 1229,1133 1271,1133 1292,1118 1292,1087 L 1292,965 C 1292,929 1282,901 1262,881 L 442,47 C 390,-6 338,-33 285,-33 Z"/>
  </g>
  <g id="bullet-char-template(9679)" transform="scale(0.00048828125,-0.00048828125)">
   <path d="M 813,0 C 632,0 489,54 383,161 276,268 223,411 223,592 223,773 276,916 383,1023 489,1130 632,1184 813,1184 992,1184 1136,1130 1245,1023 1353,916 1407,772 1407,592 1407,412 1353,268 1245,161 1136,54 992,0 813,0 Z"/>
  </g>
  <g id="bullet-char-template(8226)" transform="scale(0.00048828125,-0.00048828125)">
   <path d="M 346,457 C 273,457 209,483 155,535 101,586 74,649 74,723 74,796 101,859 155,911 209,963 273,989 346,989 419,989 480,963 531,910 582,859 608,796 608,723 608,648 583,586 532,535 482,483 420,457 346,457 Z"/>
  </g>
  <g id="bullet-char-template(8211)" transform="scale(0.00048828125,-0.00048828125)">
   <path d="M -4,459 L 1135,459 1135,606 -4,606 -4,459 Z"/>
  </g>
 </defs>
 <defs class="TextEmbeddedBitmaps"/>
 <g class="SlideGroup">
  <g>
   <g id="id1" class="Slide" clip-path="url(#presentation_clip_path)">
    <g class="Page">
     <g class="Group">
      <g class="com.sun.star.drawing.CustomShape">
       <g id="id3">
        <path fill="rgb(0,0,0)" stroke="none" d="M 13626,11347 C 13948,11347 14194,11595 14194,11920 14194,12245 13948,12494 13626,12494 13304,12494 13058,12245 13058,11920 13058,11595 13304,11347 13626,11347 Z M 13058,11347 L 13058,11347 Z M 14195,12495 L 14195,12495 Z"/>
       </g>
      </g>
      <g class="com.sun.star.drawing.CustomShape">
       <g id="id4">
        <path fill="rgb(0,0,0)" stroke="none" d="M 7270,11452 C 6948,11452 6702,11700 6702,12025 6702,12350 6948,12599 7270,12599 7592,12599 7837,12350 7837,12025 7837,11700 7592,11452 7270,11452 Z M 7837,11452 L 7837,11452 Z M 6701,12600 L 6701,12600 Z"/>
       </g>
      </g>
      <g class="com.sun.star.drawing.ClosedBezierShape">
       <g id="id5">
        <path fill="rgb(0,0,0)" stroke="none" d="M 16893,8825 C 16456,9263 15975,9656 15455,9997 15349,9820 15233,9650 15109,9487 15597,9167 16048,8799 16457,8389 16475,8371 16493,8353 16511,8335 16648,8489 16779,8650 16902,8816 16899,8819 16896,8822 16893,8825 Z M 13916,10810 C 12790,11274 11541,11528 10214,11528 8887,11528 7638,11274 6511,10810 5647,10453 4855,9974 4154,9391 4257,9210 4368,9034 4486,8865 5155,9432 5914,9896 6745,10239 7801,10674 8971,10911 10214,10911 11457,10911 12627,10674 13683,10239 14185,10032 14661,9780 15107,9488 15232,9651 15347,9821 15454,9998 14973,10314 14459,10586 13916,10810 Z"/>
       </g>
      </g>
      <g class="com.sun.star.drawing.ClosedBezierShape">
       <g id="id6">
        <path fill="rgb(0,0,0)" stroke="none" d="M 6005,17299 C 6005,17929 6126,18521 6345,19056 6493,19419 6688,19755 6921,20058 6354,19733 5835,19336 5377,18877 4695,18193 4146,17378 3772,16458 3394,15541 3188,14530 3188,13450 3188,13383 3188,13314 3191,13244 L 3191,13194 3191,13095 C 3191,12068 3388,11098 3745,10228 3895,9865 4071,9518 4273,9190 4647,9504 5047,9788 5472,10038 5309,10303 5167,10582 5046,10874 4770,11549 4611,12295 4587,13086 L 4587,13095 C 4587,13925 4747,14711 5037,15415 5276,15999 5608,16532 6015,16996 6009,17096 6005,17197 6005,17299 Z M 13601,20469 C 13999,20070 14318,19592 14538,19056 14757,18521 14877,17929 14877,17299 14877,17196 14874,17095 14868,16994 15275,16531 15604,15998 15842,15415 16133,14711 16292,13925 16292,13095 16292,12263 16133,11480 15842,10775 15703,10433 15532,10108 15334,9806 15839,9473 16307,9091 16732,8665 16742,8655 16752,8645 16762,8635 17194,9177 17551,9783 17819,10443 18200,11360 18403,12370 18403,13450 18403,14530 18200,15541 17819,16458 17445,17378 16899,18193 16217,18877 15535,19561 14719,20108 13802,20484 13682,20533 13561,20580 13438,20623 13494,20573 13548,20522 13601,20469 Z"/>
       </g>
      </g>
      <g class="com.sun.star.drawing.ClosedBezierShape">
       <g id="id7">
        <path fill="rgb(0,0,0)" stroke="none" d="M 12015,17065 C 12049,17269 12041,17475 11995,17672 11949,17867 11864,18057 11742,18224 11622,18391 11463,18536 11270,18656 11079,18773 10878,18851 10676,18883 10472,18916 10265,18907 10070,18861 9874,18814 9687,18727 9521,18605 9355,18485 9207,18327 9088,18133 8970,17943 8897,17739 8863,17535 8829,17330 8837,17126 8882,16928 8929,16731 9015,16545 9137,16376 9257,16211 9414,16062 9605,15944 9617,15937 9630,15929 9642,15921 9647,15918 9649,15917 9652,15915 9657,15912 9664,15908 9669,15905 9852,15792 10044,15721 10239,15689 10435,15657 10626,15666 10815,15710 11002,15754 11179,15837 11339,15953 11497,16068 11639,16219 11752,16403 11755,16408 11757,16413 11762,16420 11764,16423 11765,16425 11767,16428 11774,16440 11782,16453 11789,16465 11908,16658 11982,16863 12015,17065 Z M 11177,16211 C 11046,16114 10898,16048 10743,16011 10590,15971 10426,15967 10266,15994 10117,16018 9965,16070 9825,16154 9823,16155 9823,16155 9823,16155 9675,16247 9553,16360 9461,16488 9367,16617 9301,16760 9268,16911 9230,17061 9224,17218 9251,17377 9276,17535 9334,17691 9425,17839 9515,17986 9629,18111 9759,18205 9887,18297 10029,18362 10181,18398 10329,18434 10488,18442 10644,18414 10799,18389 10956,18334 11105,18242 11253,18150 11373,18035 11465,17906 11560,17779 11625,17634 11662,17484 11696,17333 11704,17174 11677,17019 11651,16861 11592,16703 11502,16557 L 11501,16555 C 11411,16415 11301,16302 11177,16211 Z"/>
       </g>
      </g>
      <g class="com.sun.star.drawing.ClosedBezierShape">
       <g id="id8">
        <path fill="rgb(0,0,0)" stroke="none" d="M 6345,15542 C 6302,15646 6263,15752 6228,15860 6070,15614 5934,15351 5821,15074 5574,14472 5438,13802 5438,13092 5438,12381 5574,11712 5821,11109 5826,11097 5831,11084 5837,11072 5979,11140 6124,11205 6270,11266 6265,11354 6262,11444 6262,11534 6262,12128 6376,12687 6582,13191 6736,13567 6942,13914 7192,14222 6836,14601 6548,15047 6345,15542 Z M 14538,15542 C 14334,15046 14045,14599 13687,14220 13938,13912 14145,13566 14298,13191 14504,12687 14618,12128 14618,11534 14618,11378 14610,11224 14594,11073 14718,11014 14841,10952 14962,10888 14996,10961 15028,11034 15059,11109 15306,11712 15442,12381 15442,13092 15442,13802 15306,14472 15059,15074 14946,15350 14811,15612 14653,15857 14619,15750 14580,15645 14538,15542 Z"/>
       </g>
      </g>
      <g class="com.sun.star.drawing.ClosedBezierShape">
       <g id="id9">
        <path fill="rgb(0,0,0)" stroke="none" d="M 9528,9813 C 9362,9690 9223,9538 9121,9364 9018,9190 8948,8996 8918,8790 8889,8587 8901,8371 8957,8152 9012,7934 9103,7738 9226,7574 9348,7407 9503,7269 9676,7166 9849,7062 10043,6994 10248,6966 10450,6936 10666,6946 10885,7002 11102,7057 11297,7151 11463,7274 11630,7397 11765,7549 11871,7723 11975,7896 12042,8091 12071,8296 12101,8499 12091,8716 12036,8933 12032,8947 12029,8961 12025,8975 12024,8981 12023,8984 12022,8987 12021,8992 12019,9001 12017,9006 11965,9215 11876,9400 11758,9559 11640,9718 11497,9848 11331,9946 11165,10045 10981,10110 10785,10138 10592,10167 10385,10157 10177,10104 10171,10102 10165,10101 10158,10099 10155,10098 10152,10097 10149,10097 10134,10093 10121,10089 10106,10086 9887,10030 9692,9935 9528,9813 Z M 10723,9840 C 10884,9818 11035,9764 11174,9681 11310,9601 11431,9492 11527,9359 11617,9239 11690,9094 11733,8937 11733,8934 11733,8934 11733,8934 11776,8765 11785,8599 11761,8443 11738,8284 11686,8136 11606,8004 11528,7871 11424,7753 11294,7658 11166,7562 11017,7491 10848,7448 10681,7406 10513,7396 10355,7419 10199,7442 10051,7496 9917,7575 9787,7653 9667,7758 9575,7887 9480,8014 9406,8163 9363,8333 9321,8502 9315,8668 9338,8825 9358,8983 9413,9132 9490,9266 9570,9397 9675,9517 9801,9609 9930,9705 10083,9777 10249,9819 L 10252,9819 C 10412,9857 10570,9861 10723,9840 Z"/>
       </g>
      </g>
      <g class="com.sun.star.drawing.CustomShape">
       <g id="id10">
        <path fill="rgb(0,0,0)" stroke="none" d="M 10533,7726 C 10027,7726 9640,8116 9640,8628 9640,9140 10027,9531 10533,9531 11039,9531 11425,9140 11425,8628 11425,8116 11039,7726 10533,7726 Z M 11425,7726 L 11425,7726 Z M 9639,9532 L 9639,9532 Z"/>
       </g>
      </g>
      <g class="com.sun.star.drawing.ClosedBezierShape">
       <g id="id11">
        <path fill="rgb(0,0,0)" stroke="none" d="M 14947,16895 C 14976,16860 15005,16825 15033,16789 15050,16957 15059,17128 15059,17302 15059,17957 14934,18574 14705,19131 14503,19624 14220,20070 13872,20454 13846,20465 13820,20476 13793,20486 13278,20700 12732,20858 12160,20956 12586,20761 12968,20494 13292,20170 13650,19810 13938,19379 14136,18896 14335,18411 14444,17873 14444,17302 14444,16730 14335,16192 14136,15707 13938,15225 13650,14794 13292,14435 12933,14076 12504,13788 12022,13589 11538,13390 11001,13281 10432,13281 9862,13281 9325,13390 8842,13589 8360,13788 7931,14076 7573,14435 7215,14794 6928,15225 6730,15707 6531,16192 6422,16730 6422,17302 6422,17873 6531,18411 6730,18896 6928,19379 7215,19810 7573,20170 7733,20330 7908,20477 8094,20607 7989,20569 7884,20529 7781,20486 7333,20302 6907,20075 6508,19812 6375,19597 6258,19369 6160,19131 5932,18574 5807,17957 5807,17302 5807,16646 5932,16029 6160,15472 6390,14913 6723,14415 7138,13999 7553,13582 8050,13248 8608,13018 9163,12790 9778,12664 10432,12664 11085,12664 11701,12790 12256,13018 12814,13248 13311,13582 13727,13998 14142,14415 14476,14913 14705,15472 14873,15881 14985,16323 15033,16789 15005,16825 14976,16860 14947,16895 Z"/>
       </g>
      </g>
      <g class="com.sun.star.drawing.ClosedBezierShape">
       <g id="id12">
        <path fill="rgb(0,0,0)" stroke="none" d="M 10440,12679 C 10666,12679 10887,12694 11102,12726 L 11265,15977 9729,15977 9892,12711 C 10071,12689 10254,12679 10440,12679 Z M 10440,12140 C 10264,12140 10090,12149 9919,12165 L 10495,635 11074,12178 C 10867,12153 10656,12140 10440,12140 Z"/>
       </g>
      </g>
     </g>
    </g>
   </g>
  </g>
 </g>
</svg>